<svg width="37" height="26" viewBox="0 0 37 26" fill="none" xmlns="http://www.w3.org/2000/svg">
<path opacity="0.587821" fill-rule="evenodd" clip-rule="evenodd" d="M8.11963 6.02048C8.11963 9.16724 10.79 11.7182 14.084 11.7182C17.378 11.7182 20.0484 9.16724 20.0484 6.02048C20.0484 2.87371 17.378 0.322754 14.084 0.322754C10.79 0.322754 8.11963 2.87371 8.11963 6.02048ZM23.0305 11.7181C23.0305 14.0782 25.0333 15.9914 27.5038 15.9914C29.9743 15.9914 31.9771 14.0782 31.9771 11.7181C31.9771 9.35804 29.9743 7.44482 27.5038 7.44482C25.0333 7.44482 23.0305 9.35804 23.0305 11.7181Z" fill="#0F67B1"/>
<path fill-rule="evenodd" clip-rule="evenodd" d="M14.0591 14.5674C7.01898 14.5674 1.24299 18.0238 0.665034 24.8222C0.633552 25.1925 1.37489 25.9628 1.74884 25.9628H26.3805C27.5006 25.9628 27.5181 25.1017 27.5006 24.8233C27.0637 17.8339 21.1982 14.5674 14.0591 14.5674ZM35.639 25.9626H29.8897C29.8896 22.7563 28.7805 19.7974 26.9089 17.4169C31.9884 17.4699 36.1358 19.9232 36.4479 25.1079C36.4605 25.3168 36.4479 25.9626 35.639 25.9626Z" fill="#0F67B1"/>
</svg>
